<?xml version="1.0" standalone="no"?>
<!DOCTYPE svg PUBLIC "-//W3C//DTD SVG 20010904//EN"
 "http://www.w3.org/TR/2001/REC-SVG-20010904/DTD/svg10.dtd">
<svg version="1.0" xmlns="http://www.w3.org/2000/svg"
 width="500.000000pt" height="375.000000pt" viewBox="0 0 500.000000 375.000000"
 preserveAspectRatio="xMidYMid meet">

<g transform="translate(0.000000,375.000000) scale(0.100000,-0.100000)"
fill="#000000" stroke="none">
<path d="M3105 2885 c-109 -18 -226 -48 -297 -76 -77 -30 -240 -123 -272 -156
-22 -22 -29 -24 -36 -13 -13 21 -50 -15 -50 -49 0 -36 -97 -126 -161 -148 -27
-10 -49 -21 -49 -24 0 -10 59 -59 71 -59 16 0 10 -15 -32 -70 -45 -60 -82
-136 -73 -151 3 -5 13 -5 24 1 48 26 39 -2 -38 -107 -22 -30 -30 -48 -23 -52
6 -4 -4 -14 -25 -24 -204 -98 -394 -311 -510 -573 -27 -61 -51 -73 -165 -81
-99 -7 -159 7 -289 69 -58 28 -116 50 -129 49 -31 -1 -58 -26 -83 -75 -30 -58
-22 -175 16 -239 71 -122 267 -188 496 -168 124 12 214 38 293 86 l57 35 113
-105 c110 -103 113 -104 151 -98 21 3 51 6 65 7 24 1 27 6 35 59 l9 58 66 -7
c59 -6 70 -11 103 -45 44 -45 102 -64 171 -56 65 8 70 13 64 58 l-5 39 83 0
c65 0 85 -4 96 -17 8 -9 38 -32 67 -50 49 -32 58 -34 115 -29 34 2 64 6 67 7
7 3 23 7 38 8 7 1 12 17 12 45 l0 43 73 7 c134 13 220 45 299 115 l46 41 21
-42 c12 -24 42 -65 68 -92 l46 -48 55 6 c30 4 58 9 63 12 5 2 18 35 29 72 41
129 35 358 -12 446 -8 15 -8 21 1 24 15 5 14 35 -1 50 -9 9 -5 12 20 12 41 0
40 13 -3 46 -19 14 -35 30 -35 34 0 5 14 13 31 19 18 6 51 27 75 46 23 19 47
35 52 35 18 0 52 52 64 97 10 42 11 43 30 26 17 -15 21 -15 28 -3 13 20 12 45
-4 113 -13 57 -13 57 10 57 39 0 37 18 -10 75 -24 30 -52 75 -62 101 l-17 45
43 42 c24 23 57 71 73 106 25 53 31 80 35 160 5 112 -6 151 -42 151 -16 0 -35
-15 -62 -47 -20 -27 -40 -52 -44 -56 -4 -4 -15 4 -25 19 -17 27 -17 27 14 51
42 33 39 49 -14 62 -49 12 -52 16 -30 45 33 44 22 49 -82 42 -54 -5 -107 -8
-118 -8 -11 -1 -76 11 -145 25 -160 34 -323 42 -445 22z m188 -67 c39 -40 79
-95 107 -148 l46 -85 51 3 c28 1 54 -2 58 -8 6 -10 -31 -86 -63 -127 l-17 -23
-90 34 c-50 19 -108 37 -128 41 -47 9 -43 27 9 38 21 4 42 11 47 16 22 22
-107 211 -178 262 -25 18 -43 35 -40 38 6 5 76 18 113 20 17 1 42 -18 85 -61z
m282 28 c107 -23 130 -24 210 -16 50 5 93 10 98 10 12 0 8 -23 -9 -41 -21 -23
-12 -36 36 -50 22 -7 40 -16 40 -20 0 -5 -13 -18 -30 -31 l-30 -22 21 -34 20
-35 -32 -33 -33 -34 -28 33 c-26 29 -25 25 11 -43 22 -41 45 -95 51 -120 16
-57 28 -160 20 -160 -3 0 -23 16 -44 35 -44 40 -46 41 -46 18 -1 -10 -7 -31
-14 -48 l-13 -30 -19 53 c-10 28 -22 52 -25 52 -4 0 -11 -12 -17 -27 -5 -16
-30 -50 -55 -78 l-46 -50 -1 68 c0 38 -4 67 -10 67 -5 0 -10 -7 -10 -15 0 -21
-172 -155 -200 -155 -6 0 -8 10 -6 23 13 61 16 127 6 127 -5 0 -10 -5 -10 -11
0 -10 -132 -173 -149 -183 -13 -8 -31 82 -31 157 l-1 62 -78 -83 c-42 -45 -80
-79 -84 -75 -4 3 -7 39 -7 79 0 40 -4 76 -10 79 -5 3 -10 0 -10 -8 0 -18 -78
-134 -139 -206 l-46 -54 -6 34 c-3 19 -4 66 -1 104 l5 70 -43 -40 -42 -40 4
123 c5 109 3 122 -11 122 -43 0 -231 158 -231 194 0 20 38 50 131 104 106 61
187 94 301 122 l87 22 61 -47 c61 -47 116 -112 164 -196 28 -50 24 -59 -26
-59 -24 0 -48 -28 -41 -47 3 -7 31 -20 62 -29 31 -9 89 -29 129 -45 40 -16 76
-29 81 -29 17 0 83 114 88 151 5 34 3 39 -18 44 -13 3 -39 5 -58 3 -31 -3 -36
1 -58 42 -51 92 -107 172 -142 202 l-36 30 100 -5 c55 -3 154 -17 220 -31z
m-1029 -558 c63 -91 158 -148 246 -148 l38 0 0 -58 c0 -32 3 -61 6 -65 9 -8
107 105 162 187 l47 69 3 -76 c2 -43 7 -77 11 -77 4 0 41 37 82 82 l74 82 6
-80 c3 -43 9 -94 14 -112 l7 -34 30 29 c16 15 53 56 81 90 28 35 52 61 54 59
2 -2 0 -29 -5 -60 -8 -48 -7 -56 7 -56 21 0 72 31 149 91 l62 49 0 -55 c0 -30
4 -55 8 -55 10 0 93 87 115 119 l16 24 17 -42 c20 -50 39 -52 54 -6 6 19 15
35 19 35 4 0 22 -13 41 -30 19 -16 41 -29 48 -30 6 0 12 -4 12 -9 0 -6 22 -39
49 -75 46 -60 48 -65 28 -68 -24 -3 -23 0 -11 -118 7 -64 7 -65 -13 -47 -30
26 -40 21 -45 -26 -6 -49 -41 -113 -46 -84 -4 22 -22 22 -22 1 0 -22 -55 -71
-112 -100 -43 -22 -47 -27 -38 -44 6 -11 20 -25 32 -31 l22 -12 -22 -8 c-23
-9 -29 -33 -11 -44 6 -5 4 -11 -7 -19 -15 -11 -15 -15 -2 -42 24 -46 41 -148
42 -242 1 -110 -38 -275 -64 -267 -8 3 -30 1 -49 -5 -31 -8 -36 -6 -80 35 -26
24 -58 67 -71 94 l-23 50 27 32 c15 17 25 37 23 43 -2 7 -56 13 -148 18 -79 4
-182 14 -228 24 -77 16 -85 16 -111 1 -15 -9 -39 -21 -53 -26 -23 -9 -28 -7
-47 26 -31 53 -36 31 -5 -24 54 -96 96 -213 102 -283 l6 -67 -39 -6 c-89 -15
-132 -9 -188 27 -29 19 -71 56 -92 82 -58 72 -116 127 -123 116 -3 -5 -18 -12
-34 -16 -25 -6 -29 -3 -51 48 -13 29 -29 57 -35 60 -15 10 -14 0 3 -27 50 -78
98 -308 61 -294 -8 4 -17 2 -20 -3 -9 -15 -109 0 -140 22 -17 11 -51 49 -75
83 -39 55 -50 64 -84 69 -52 9 -76 23 -76 45 0 21 -21 84 -26 78 -2 -2 3 -35
11 -73 15 -69 19 -181 9 -219 -4 -17 -12 -20 -45 -17 -22 2 -45 -1 -52 -6 -9
-8 -40 15 -122 92 -119 111 -154 136 -151 110 1 -20 -108 -77 -189 -99 -84
-23 -269 -31 -346 -16 -130 26 -238 90 -275 162 -45 90 -43 177 7 250 l18 26
59 -57 c34 -34 85 -70 124 -89 58 -27 76 -31 151 -31 71 0 99 5 165 30 88 34
102 46 121 105 7 22 32 72 55 112 35 62 44 71 64 66 36 -9 52 13 52 74 0 50 3
57 45 102 39 42 50 48 82 47 36 -1 37 1 50 45 12 41 22 52 82 92 38 25 92 54
121 63 58 19 57 28 -4 33 -5 1 0 11 11 24 11 12 32 42 47 67 15 25 34 56 43
69 l17 23 -43 -7 -42 -7 21 44 c23 44 82 123 110 145 13 11 13 12 0 13 -9 0
-33 12 -55 27 l-39 26 37 13 c40 14 127 76 141 101 7 12 19 -12 47 -91 20 -59
50 -126 65 -148z m-581 -497 c-3 -12 -13 -21 -21 -21 -18 0 -18 9 3 32 20 22
27 17 18 -11z m-183 -233 c-22 -22 -32 3 -15 34 l18 30 3 -27 c2 -15 -1 -32
-6 -37z m-655 -183 c32 -19 90 -47 128 -62 61 -24 84 -27 182 -28 l113 0 -58
-22 c-41 -16 -80 -22 -137 -22 -68 -1 -89 3 -142 29 -59 27 -163 112 -163 131
0 16 17 10 77 -26z m2059 -120 c38 -8 134 -18 214 -23 l145 -7 -58 -62 c-32
-33 -75 -73 -95 -86 -52 -36 -144 -64 -233 -72 l-76 -7 -6 38 c-4 22 -21 72
-39 113 -18 41 -28 76 -22 78 5 2 25 12 44 23 43 23 42 23 126 5z m-497 -202
c23 -27 41 -51 41 -55 0 -5 -29 -8 -64 -8 l-64 0 -8 38 c-4 20 -8 41 -8 47 -1
7 27 20 56 24 3 1 25 -20 47 -46z m-444 -4 c27 -7 50 -20 60 -35 18 -27 16
-28 -58 -18 -40 6 -46 10 -49 35 -3 16 -3 29 -1 29 2 0 24 -5 48 -11z"/>
<path d="M3664 2126 c-12 -31 0 -51 31 -51 24 0 31 5 33 24 6 36 -51 60 -64
27z"/>
<path d="M2995 2070 c-21 -23 -14 -46 19 -62 31 -13 56 3 56 36 0 45 -44 61
-75 26z"/>
<path d="M3350 2069 c-58 -24 -41 -59 29 -58 66 0 116 19 116 44 0 18 -7 20
-60 22 -33 1 -71 -2 -85 -8z"/>
<path d="M2502 1993 c-15 -38 -42 -134 -42 -148 0 -6 6 -20 14 -30 12 -17 16
-18 31 -5 16 14 17 13 11 -7 -11 -34 3 -75 24 -70 12 3 22 -4 31 -19 7 -13 19
-24 28 -24 11 0 12 3 4 8 -7 4 -19 23 -27 42 -12 28 -16 32 -21 18 -16 -40
-28 -17 -22 42 5 61 -4 76 -23 40 -6 -11 -15 -20 -20 -20 -17 0 -11 54 13 129
13 39 20 71 16 71 -3 0 -11 -12 -17 -27z"/>
<path d="M3407 1942 c-26 -28 -20 -38 7 -13 23 22 25 22 50 6 29 -19 36 -10 9
11 -25 19 -47 17 -66 -4z"/>
<path d="M1750 2140 c0 -19 40 -90 50 -90 15 0 12 9 -15 57 -26 43 -35 52 -35
33z"/>
<path d="M1810 2030 c0 -5 5 -10 10 -10 6 0 10 5 10 10 0 6 -4 10 -10 10 -5 0
-10 -4 -10 -10z"/>
<path d="M1660 2005 c-14 -17 1 -65 28 -87 13 -11 15 -10 10 9 -4 13 -2 26 3
29 15 9 10 51 -7 58 -21 8 -20 8 -34 -9z m30 -21 c0 -8 -4 -12 -10 -9 -5 3
-10 10 -10 16 0 5 5 9 10 9 6 0 10 -7 10 -16z"/>
<path d="M1560 1944 c0 -12 34 -64 42 -64 13 0 9 19 -8 45 -15 23 -34 33 -34
19z"/>
<path d="M1494 1887 c-5 -8 -20 -17 -34 -19 -25 -4 -25 -4 8 -21 19 -11 32
-25 32 -37 0 -11 5 -20 10 -20 12 0 13 80 1 99 -7 11 -10 11 -17 -2z"/>
<path d="M1300 1770 c-6 -11 -8 -26 -4 -33 15 -27 37 -46 46 -41 5 3 4 11 -2
19 -8 9 -6 14 5 19 20 7 19 42 -1 50 -25 10 -33 7 -44 -14z m38 -11 c-2 -6 -8
-10 -13 -10 -5 0 -11 4 -13 10 -2 6 4 11 13 11 9 0 15 -5 13 -11z"/>
<path d="M1200 1750 c0 -5 5 -10 10 -10 6 0 10 5 10 10 0 6 -4 10 -10 10 -5 0
-10 -4 -10 -10z"/>
<path d="M1230 1722 c0 -15 28 -72 35 -72 3 0 5 9 5 19 0 21 -39 73 -40 53z"/>
<path d="M1170 1662 c0 -19 -3 -20 -26 -12 -31 12 -34 12 -34 2 0 -5 16 -16
35 -25 23 -11 35 -24 35 -37 0 -13 4 -18 11 -15 6 5 8 23 4 49 -8 46 -25 73
-25 38z"/>
<path d="M3476 1055 c-13 -13 -13 -20 -3 -35 17 -29 23 -25 23 15 0 40 0 40
-20 20z"/>
<path d="M3404 1016 c-3 -8 -13 -12 -23 -9 -28 7 -42 -18 -26 -47 l14 -25 1
33 c0 34 10 41 29 18 18 -22 63 2 50 26 -12 21 -37 24 -45 4z m18 -18 c-7 -7
-12 -8 -12 -2 0 14 12 26 19 19 2 -3 -1 -11 -7 -17z"/>
<path d="M3277 973 c-4 -3 -7 -15 -7 -25 0 -14 7 -18 35 -15 39 2 39 1 25 28
-10 19 -40 26 -53 12z"/>
<path d="M3223 953 c-14 -5 -18 -39 -5 -46 4 -3 16 -1 27 4 11 4 14 8 7 8 -9
1 -11 8 -7 21 6 20 1 23 -22 13z"/>
<path d="M3114 935 c-4 -8 -3 -27 1 -43 5 -18 9 -22 13 -12 3 8 12 20 20 26
18 13 9 44 -13 44 -9 0 -18 -7 -21 -15z m36 -9 c0 -3 -4 -8 -10 -11 -5 -3 -10
-1 -10 4 0 6 5 11 10 11 6 0 10 -2 10 -4z"/>
<path d="M3176 941 c-4 -5 -2 -20 3 -33 9 -21 10 -21 10 10 1 32 -3 39 -13 23z"/>
</g>
</svg>
