<?xml version="1.0" standalone="no"?>
<!DOCTYPE svg PUBLIC "-//W3C//DTD SVG 20010904//EN"
 "http://www.w3.org/TR/2001/REC-SVG-20010904/DTD/svg10.dtd">
<svg version="1.0" xmlns="http://www.w3.org/2000/svg"
 width="32.000000pt" height="31.000000pt" viewBox="0 0 32.000000 31.000000"
 preserveAspectRatio="xMidYMid meet">

<g transform="translate(0.000000,31.000000) scale(0.100000,-0.100000)"
fill="#000000" stroke="none">
<path d="M22 148 l3 -133 115 -3 c173 -4 160 -16 160 138 0 144 -3 150 -61
109 -27 -19 -29 -25 -29 -90 l0 -69 -50 0 -50 0 0 69 c0 65 -2 71 -29 90 -59
42 -62 36 -59 -111z m40 7 l3 -100 95 0 95 0 5 105 c3 60 9 105 15 105 15 0
19 -214 4 -231 -15 -18 -219 -20 -237 -2 -13 13 -18 219 -5 232 15 15 22 -15
25 -109z m98 -65 l59 0 4 73 3 72 2 -77 2 -78 -70 0 -70 0 2 78 2 77 3 -72 4
-73 59 0z"/>
</g>
</svg>
